# xmcd
#
# Track frame offsets: 
#        150
#        15349
#        29611
#        52488
#        70172
#        93880
#        108864
#        135896
#        153828
#        172421
#        180861
#        203191
#        219727
#        238489
#        253891
#        270828
#        290779
#        306916
#
# Disc length: 4430 seconds
#
# Revision: 0
# Processed by: cddbd v1.5.2PL0 Copyright (c) Steve Scherf et al.
# Submitted via: ExactAudioCopy v1.0b1
#
DISCID=08114c12
DTITLE=Tom Shaka - Big City Blues - CD 3 - Dark Blues
DYEAR=2009
DGENRE=Blues
TTITLE0=Had Enough
TTITLE1=New Car
TTITLE2=Mr. Witchdoctor Man
TTITLE3=Home
TTITLE4=Her Eyes Caress My Mind
TTITLE5=She's Seventeen
TTITLE6=Getting Old
TTITLE7=Taxman
TTITLE8=No Alcohol
TTITLE9=Lucky Man
TTITLE10=Blues Preacher
TTITLE11=Politics Are Polytricks
TTITLE12=Devil Takes Posession
TTITLE13=Telephone Blues
TTITLE14=Healer
TTITLE15=Wine
TTITLE16=Play Music
TTITLE17=Devil Is Evil
EXTD=
EXTT0=
EXTT1=
EXTT2=
EXTT3=
EXTT4=
EXTT5=
EXTT6=
EXTT7=
EXTT8=
EXTT9=
EXTT10=
EXTT11=
EXTT12=
EXTT13=
EXTT14=
EXTT15=
EXTT16=
EXTT17=
PLAYORDER=
